#!OML:ASF H:\ManfredETheater\Project 1\Capture day 1\Session 1\subject.ASF
:FULLY-SPECIFIED
:DEGREES
204
root 5.38609 11.5531 0.318147 78.3646 -80.6823 -60.8315
lowerback 66.6639 3.10499 4.79468
upperback 11.0632 3.35192 -0.149987
thorax -8.76621 0.346811 -3.48329
lowerneck -11.553 39.2356 3.01356
upperneck 4.63613 58.4798 0.761462
head 30.3873 -41.9125 146.434
rclavicle 1.09332e-014 2.27981e-014
rhumerus -15.824 -13.7434 -48.6878
rradius 67.1077
rwrist -29.0759
rhand -23.4684 -1.05305
rfingers 7.12502
rthumb 2.99077 -31.0118
lclavicle 1.09332e-014 2.27981e-014
lhumerus -46.1595 -1.23694 83.2822
lradius 142.643
lwrist -11.046
lhand -32.1361 5.25087
lfingers 7.12502
lthumb -5.38013 35.1626
rfemur -65.5142 -18.4761 -10.541
rtibia 91.215
rfoot -1.3628 -8.13609
rtoes -27.4213
lfemur -88.9888 38.2747 -4.1066
ltibia 105.043
lfoot -26.1253 -35.4369
ltoes 4.7221
205
root 5.37418 11.6311 0.540689 78.3263 -80.1033 -61.4953
lowerback 67.4139 3.05738 4.88924
upperback 10.9172 3.35807 -0.0836281
thorax -8.90983 0.31458 -3.43643
lowerneck -11.0626 39.5515 3.32515
upperneck 4.8317 58.5173 1.01489
head 30.1749 -41.5839 146.632
rclavicle -1.55052e-014 4.17075e-014
rhumerus -15.4551 -13.8184 -49.2303
rradius 66.2561
rwrist -29.1446
rhand -23.4507 -1.18552
rfingers 7.12502
rthumb 3.00783 -31.1441
lclavicle -1.55052e-014 4.17075e-014
lhumerus -46.0621 -1.11448 82.8714
lradius 142.446
lwrist -10.303
lhand -32.0197 5.26316
lfingers 7.12502
lthumb -5.26771 35.1777
rfemur -65.4603 -17.9992 -9.61111
rtibia 91.9699
rfoot -1.52761 -6.91031
rtoes -25.8604
lfemur -88.8397 38.5263 -4.81882
ltibia 105.574
lfoot -25.3851 -36.1581
ltoes 7.68091
206
root 5.36199 11.7103 0.751048 78.1045 -79.5797 -62.0773
lowerback 68.3262 3.06241 4.88944
upperback 10.7304 3.35768 -0.0403244
thorax -9.09503 0.276009 -3.37064
lowerneck -10.5579 39.9071 3.70358
upperneck 5.02189 58.5648 1.28051
head 29.9302 -41.1825 146.858
rclavicle -4.72114e-014 2.60253e-014
rhumerus -14.9739 -13.8486 -49.8618
rradius 65.3206
rwrist -29.0801
rhand -23.3363 -1.32108
rfingers 7.12502
rthumb 3.11832 -31.278
lclavicle -4.72114e-014 2.60253e-014
lhumerus -46.036 -0.887661 82.2997
lradius 142.31
lwrist -9.46438
lhand -31.9065 5.30262
lfingers 7.12502
lthumb -5.15848 35.2198
rfemur -65.4603 -17.5745 -8.46503
rtibia 93.0999
rfoot -2.59517 -5.27149
rtoes -25.2865
lfemur -88.5726 38.8967 -5.50138
ltibia 106.073
lfoot -24.2706 -37.0211
ltoes 10.7069
207
root 5.35019 11.7892 0.95032 77.3136 -79.1433 -62.1525
lowerback 69.3551 3.0755 4.8245
upperback 10.5115 3.32262 -0.0242668
thorax -9.31035 0.223352 -3.29172
lowerneck -10.0688 40.2732 4.12747
upperneck 5.1983 58.6031 1.54766
head 29.6637 -40.7244 147.094
rclavicle 5.12864e-014 -2.72149e-014
rhumerus -14.4462 -13.8665 -50.554
rradius 64.3267
rwrist -28.9104
rhand -23.1397 -1.44097
rfingers 7.12502
rthumb 3.30822 -31.3951
lclavicle 5.12864e-014 -2.72149e-014
lhumerus -46.08 -0.5973 81.5975
lradius 142.239
lwrist -8.612
lhand -31.7899 5.36453
lfingers 7.12502
lthumb -5.04585 35.2845
rfemur -65.4786 -17.3199 -7.17041
rtibia 94.5915
rfoot -4.34558 -3.38317
rtoes -25.7435
lfemur -88.2724 39.2871 -6.21904
ltibia 106.551
lfoot -22.6706 -38.0319
ltoes 13.8217
208
root 5.3399 11.8662 1.14022 75.6765 -78.8047 -61.3913
lowerback 70.4372 3.0419 4.74446
upperback 10.2742 3.22931 -0.0395075
thorax -9.5386 0.151545 -3.216
lowerneck -9.62722 40.6158 4.56697
upperneck 5.35129 58.6241 1.79989
head 29.397 -40.2397 147.321
rclavicle 7.7526e-015 7.04816e-014
rhumerus -13.9541 -13.8716 -51.2532
rradius 63.3358
rwrist -28.7212
rhand -22.9007 -1.53266
rfingers 7.12502
rthumb 3.53899 -31.483
lclavicle 7.7526e-015 7.04816e-014
lhumerus -46.1808 -0.297805 80.8031
lradius 142.241
lwrist -7.77114
lhand -31.7263 5.48415
lfingers 7.12502
lthumb -4.9845 35.4055
rfemur -65.4968 -17.306 -5.79853
rtibia 96.405
rfoot -6.47929 -1.4294
rtoes -27.0196
lfemur -88.0332 39.5963 -7.02788
ltibia 107.016
lfoot -20.4995 -39.1566
ltoes 16.9737
209
root 5.33158 11.9394 1.32234 73.0969 -78.5603 -59.6377
lowerback 71.486 2.93073 4.68446
upperback 10.0399 3.07193 -0.0839886
thorax -9.75748 0.0623171 -3.15464
lowerneck -9.26074 40.9031 4.99488
upperneck 5.47199 58.6075 2.02485
head 29.1442 -39.7607 147.522
rclavicle -2.26615e-014 -8.60986e-015
rhumerus -13.5605 -13.8872 -51.9194
rradius 62.3922
rwrist -28.5416
rhand -22.6593 -1.58698
rfingers 7.12502
rthumb 3.77206 -31.5333
lclavicle -2.26615e-014 -8.60986e-015
lhumerus -46.3176 -0.0319777 79.954
lradius 142.314
lwrist -6.96063
lhand -31.6959 5.61818
lfingers 7.12502
lthumb -4.95512 35.5402
rfemur -65.5352 -17.5788 -4.41217
rtibia 98.4813
rfoot -8.70318 0.440816
rtoes -28.7742
lfemur -87.95 39.7619 -7.97624
ltibia 107.479
lfoot -17.7033 -40.3312
ltoes 20.0278
210
root 5.32528 12.0065 1.4981 69.6363 -78.3885 -56.8927
lowerback 72.4017 2.74077 4.66329
upperback 9.8363 2.86597 -0.148167
thorax -9.94145 -0.0351896 -3.11309
lowerneck -8.98979 41.1055 5.38122
upperneck 5.55835 58.5415 2.21366
head 28.9254 -39.3232 147.676
rclavicle 4.90998e-014 1.963e-014
rhumerus -13.3179 -13.9402 -52.4995
rradius 61.5326
rwrist -28.4029
rhand -22.4252 -1.57709
rfingers 7.12502
rthumb 3.99816 -31.5193
lclavicle 4.90998e-014 1.963e-014
lhumerus -46.4614 0.154271 79.1094
lradius 142.446
lwrist -6.20237
lhand -31.7144 5.73337
lfingers 7.12502
lthumb -4.97296 35.655
rfemur -65.6382 -18.143 -3.06081
rtibia 100.744
rfoot -10.8505 2.17805
rtoes -30.7496
lfemur -88.106 39.759 -9.09851
ltibia 107.949
lfoot -14.4209 -41.4023
ltoes 22.6013
211
root 5.32052 12.0655 1.6685 65.5156 -78.2695 -53.3338
lowerback 73.1077 2.49463 4.67013
upperback 9.68505 2.62692 -0.233527
thorax -10.0736 -0.13295 -3.09722
lowerneck -8.82261 41.2195 5.70965
upperneck 5.61532 58.4493 2.36225
head 28.7553 -38.9314 147.775
rclavicle 1.53064e-014 -1.85864e-014
rhumerus -13.248 -14.0052 -52.9759
rradius 60.8005
rwrist -28.2978
rhand -22.2309 -1.51785
rfingers 7.12502
rthumb 4.1858 -31.4565
lclavicle 1.53064e-014 -1.85864e-014
lhumerus -46.5873 0.244688 78.2919
lradius 142.61
lwrist -5.50549
lhand -31.802 5.79548
lfingers 7.12502
lthumb -5.05753 35.7151
rfemur -65.854 -18.9323 -1.78554
rtibia 103.104
rfoot -12.882 3.85209
rtoes -32.8342
lfemur -88.5364 39.6101 -10.4124
ltibia 108.431
lfoot -10.9527 -42.2097
ltoes 24.2564
212
root 5.31659 12.1149 1.83444 61.01 -78.1723 -49.2066
lowerback 73.5424 2.22899 4.69437
upperback 9.60421 2.38415 -0.333023
thorax -10.1406 -0.219292 -3.1089
lowerneck -8.75613 41.2393 5.97442
upperneck 5.63777 58.3221 2.46575
head 28.6385 -38.6166 147.82
rclavicle 5.76476e-015 2.68608e-014
rhumerus -13.3576 -14.074 -53.3317
rradius 60.2145
rwrist -28.209
rhand -22.085 -1.4132
rfingers 7.12502
rthumb 4.32664 -31.349
lclavicle 5.76476e-015 2.68608e-014
lhumerus -46.6691 0.22181 77.5426
lradius 142.762
lwrist -4.89989
lhand -31.986 5.77758
lfingers 7.12502
lthumb -5.23524 35.6929
rfemur -66.2078 -19.8399 -0.616993
rtibia 105.457
rfoot -14.8005 5.60785
rtoes -34.814
lfemur -89.2472 39.3529 -11.9033
ltibia 108.922
lfoot -7.75289 -42.5371
ltoes 24.8118
213
root 5.31238 12.1537 1.99639 56.5287 -78.0873 -44.9094
lowerback 73.6656 2.02641 4.69779
upperback 9.60956 2.19377 -0.42499
thorax -10.1296 -0.274509 -3.13321
lowerneck -8.7908 41.1615 6.16097
upperneck 5.62661 58.1641 2.52114
head 28.5757 -38.3896 147.816
rclavicle 4.45278e-014 -1.25483e-015
rhumerus -13.6388 -14.1282 -53.5287
rradius 59.7792
rwrist -28.1494
rhand -21.9854 -1.26037
rfingers 7.12502
rthumb 4.4229 -31.1942
lclavicle 4.45278e-014 -1.25483e-015
lhumerus -46.6789 0.0690151 76.9034
lradius 142.85
lwrist -4.41155
lhand -32.2688 5.65168
lfingers 7.12502
lthumb -5.50822 35.5601
rfemur -66.711 -20.6984 0.43703
rtibia 107.686
rfoot -16.5708 7.64442
rtoes -36.3786
lfemur -90.206 39.0662 -13.5369
ltibia 109.407
lfoot -5.46944 -42.1636
ltoes 24.0087
214
root 5.30709 12.1824 2.1556 52.2918 -78.0036 -40.6675
lowerback 73.4759 1.90877 4.66919
upperback 9.69948 2.06797 -0.505141
thorax -10.0435 -0.2958 -3.16567
lowerneck -8.90734 41.0023 6.26857
upperneck 5.59408 57.9975 2.53565
head 28.5659 -38.2401 147.77
rclavicle 9.54166e-015 -4.38817e-014
rhumerus -14.0491 -14.15 -53.5975
rradius 59.4833
rwrist -28.0932
rhand -21.9191 -1.06971
rfingers 7.12502
rthumb 4.48688 -31.0022
lclavicle 9.54166e-015 -4.38817e-014
lhumerus -46.6188 -0.203088 76.3926
lradius 142.832
lwrist -4.0539
lhand -32.6385 5.3939
lfingers 7.12502
lthumb -5.8652 35.2927
rfemur -67.3209 -21.3688 1.37645
rtibia 109.663
rfoot -18.1047 10.0187
rtoes -37.6538
lfemur -91.3467 38.7659 -15.2615
ltibia 109.845
lfoot -4.53476 -40.9124
ltoes 21.691
215
root 5.29982 12.2029 2.31324 48.4554 -77.9183 -36.6725
lowerback 73.0185 1.91351 4.5929
upperback 9.8677 2.03576 -0.551939
thorax -9.88505 -0.275802 -3.18624
lowerneck -9.11028 40.7607 6.28564
upperneck 5.53052 57.8136 2.50084
head 28.5984 -38.1819 147.698
rclavicle 6.41081e-015 7.32459e-014
rhumerus -14.5595 -14.0982 -53.4992
rradius 59.3196
rwrist -28.0923
rhand -21.87 -0.858333
rfingers 7.12502
rthumb 4.53426 -30.7898
lclavicle 6.41081e-015 7.32459e-014
lhumerus -46.4773 -0.601447 76.0463
lradius 142.668
lwrist -3.82958
lhand -33.0678 5.00523
lfingers 7.12502
lthumb -6.27965 34.8922
rfemur -67.9437 -21.7309 2.21247
rtibia 111.259
rfoot -19.2991 12.6601
rtoes -38.759
lfemur -92.5486 38.4647 -16.9918
ltibia 110.176
lfoot -5.10777 -38.6033
ltoes 17.8463
